<?xml version="1.0" encoding="UTF-8"?>
<svg width="521px" height="86px" viewBox="0 0 521 86" version="1.1" xmlns="http://www.w3.org/2000/svg" xmlns:xlink="http://www.w3.org/1999/xlink">
    <title>Group</title>
    <g id="Welcome" stroke="none" stroke-width="1" fill="none" fill-rule="evenodd">
        <g id="Tablet-Portrait" transform="translate(-22.000000, -1.000000)">
            <g id="Group" transform="translate(23.000000, 2.000000)">
                <path d="M334.266,26.09 L320.088,26.09 L320.088,40.268 L334.266,40.268 L334.266,26.09 L334.266,26.09 Z M341.355,40.267 L334.266,40.267 L334.266,47.356 L320.089,47.356 L320.089,68.623 L313,68.623 L313,19 L334.266,19 L334.266,26.09 L341.355,26.09 L341.355,40.267 L341.355,40.267 Z" id="Shape" stroke="#FF0000" stroke-width="2"></path>
                <polygon id="Shape" stroke="#3FA9F5" stroke-width="2" points="369.268 68.623 348 68.623 348 61.534 355.089 61.534 355.089 26.09 348 26.09 348 19 369.268 19 369.268 26.09 362.178 26.09 362.178 61.534 369.268 61.534 369.268 68.623"></polygon>
                <path d="M411.445,68.622 L404.356,68.622 L404.356,61.533 L411.445,61.533 L411.445,68.622 L411.445,68.622 Z M411.445,26.089 L404.356,26.089 L404.356,19 L411.445,19 L411.445,26.089 L411.445,26.089 Z M404.356,61.533 L397.267,61.533 L397.267,47.355 L404.356,47.355 L404.356,61.533 L404.356,61.533 Z M404.356,40.266 L397.267,40.266 L397.267,26.088 L404.356,26.088 L404.356,40.266 L404.356,40.266 Z M397.268,47.355 L390.178,47.355 L390.178,40.266 L397.268,40.266 L397.268,47.355 L397.268,47.355 Z M390.178,61.533 L383.089,61.533 L383.089,47.355 L390.178,47.355 L390.178,61.533 L390.178,61.533 Z M390.178,40.266 L383.089,40.266 L383.089,26.088 L390.178,26.088 L390.178,40.266 L390.178,40.266 Z M383.089,68.622 L376,68.622 L376,61.533 L383.089,61.533 L383.089,68.622 L383.089,68.622 Z M383.089,26.089 L376,26.089 L376,19 L383.089,19 L383.089,26.089 L383.089,26.089 Z" id="Shape" stroke="#52F800" stroke-width="2"></path>
                <polygon id="Shape" stroke="#B400FF" stroke-width="2" points="447.355 68.623 419 68.623 419 19 447.355 19 447.355 26.09 426.088 26.09 426.088 40.268 441.684 40.268 441.684 47.356 426.088 47.356 426.088 61.534 447.355 61.534 447.355 68.623"></polygon>
                <polygon id="Shape" stroke="#FF5400" stroke-width="2" points="483.355 68.623 455 68.623 455 19 462.088 19 462.088 61.534 483.355 61.534"></polygon>
                <path d="M518.356,61.533 L511.267,61.533 L511.267,47.355 L518.356,47.355 L518.356,61.533 L518.356,61.533 Z M511.267,47.355 L497.089,47.355 L497.089,40.266 L511.267,40.266 L511.267,47.355 L511.267,47.355 Z M518.356,26.089 L497.089,26.089 L497.089,19 L518.356,19 L518.356,26.089 L518.356,26.089 Z M511.267,68.622 L490,68.622 L490,61.533 L511.267,61.533 L511.267,68.622 L511.267,68.622 Z M497.089,40.266 L490,40.266 L490,26.088 L497.089,26.088 L497.089,40.266 L497.089,40.266 Z" id="Shape" stroke="#FF0090" stroke-width="2"></path>
                <text id="SCRIPTED" stroke="#000000" font-family="Code-Light, Code Light" font-size="69" font-weight="normal" fill="#000000">
                    <tspan x="0" y="69">SCRIPTED</tspan>
                </text>
            </g>
        </g>
    </g>
</svg>