<?xml version="1.0" encoding="UTF-8"?>
<svg width="124px" height="56px" viewBox="0 0 124 56" version="1.1" xmlns="https://www.w3.org/2000/svg" xmlns:xlink="https://www.w3.org/1999/xlink">
    <title>Artboard</title>
    <g id="Artboard" stroke="none" stroke-width="1" fill="none" fill-rule="evenodd">
        <g id="Group-2" transform="translate(4.000000, 1.000000)" stroke-width="2">
            <path d="M70.3481013,7.75768535 L55.0443038,7.75768535 L55.0443038,23.2730561 L70.3481013,23.2730561 L70.3481013,7.75768535 L70.3481013,7.75768535 Z M78,23.2730561 L70.3478314,23.2730561 L70.3478314,31.0307414 L55.0445737,31.0307414 L55.0445737,54.3037975 L47.3924051,54.3037975 L47.3924051,0 L70.3478314,0 L70.3478314,7.75877968 L78,7.75877968 L78,23.2730561 L78,23.2730561 Z" id="Shape" stroke="#FF0000"></path>
            <path d="M17.9801706,54.3037975 C27.9858722,54.3037975 38.5934205,47.6243896 36.1860337,36.3908401 C34.5610476,28.739882 27.6802469,27.4829389 20.4795271,26.7201486 L19.5179687,26.6208536 C19.3575374,26.6046199 19.1970565,26.5885006 19.0365801,26.5724312 L17.5938768,26.4274025 C9.75574716,25.6260863 2.31861447,24.4779644 1.65507846,15.3658859 C1.42938595,12.4056938 2.1064635,9.59730638 3.98723448,7.24433316 C7.14692973,3.06970327 12.7892427,1.24804658 17.7544781,1.17214422 C22.4940209,1.09624186 27.6849488,2.53838673 30.9198749,6.02989538 C32.4244917,7.69974733 33.3272618,9.59730638 33.7786468,11.7984749 L33.8538777,12.4056938 L34.9823403,12.1779867 L34.9071094,11.5707678 C32.3492609,-2.1675597 10.6827792,-3.45789985 3.00923357,6.56121191 C1.05323175,9.14189221 0.225692518,12.253889 0.526615875,15.4417882 C1.88077098,35.2523047 31.5969525,20.8308559 34.9823403,36.6185472 C35.5714037,39.4671918 35.2774724,41.9838327 34.3537654,44.1400834 C31.8563702,49.969865 24.7554348,53.165262 18.0554014,53.165262 C10.9084717,53.165262 2.1064635,49.1424369 1.27892427,41.1726889 L1.20369343,40.6413723 L0,40.7931771 L0.0752308393,41.3244936 C0.97800091,49.9014605 10.306625,54.3037975 17.9801706,54.3037975 Z" id="S" stroke="#000000" fill="#000000" fill-rule="nonzero"></path>
        </g>
    </g>
</svg>