<?xml version="1.0" encoding="UTF-8"?>
<svg width="520px" height="84px" viewBox="0 0 520 84" version="1.1" xmlns="https://www.w3.org/2000/svg" xmlns:xlink="https://www.w3.org/1999/xlink">
    <title>Group</title>
    <g id="Welcome" stroke="none" stroke-width="1" fill="none" fill-rule="evenodd">
        <g id="Tablet-Portrait" transform="translate(-23.000000, -2.000000)">
            <g id="Group" transform="translate(23.000000, 2.000000)">
                <path d="M334.266,26.09 L320.088,26.09 L320.088,40.268 L334.266,40.268 L334.266,26.09 L334.266,26.09 Z M341.355,40.267 L334.266,40.267 L334.266,47.356 L320.089,47.356 L320.089,68.623 L313,68.623 L313,19 L334.266,19 L334.266,26.09 L341.355,26.09 L341.355,40.267 L341.355,40.267 Z" id="Shape" stroke="#FF0000" stroke-width="2"></path>
                <polygon id="Shape" stroke="#3FA9F5" stroke-width="2" points="369.268 68.623 348 68.623 348 61.534 355.089 61.534 355.089 26.09 348 26.09 348 19 369.268 19 369.268 26.09 362.178 26.09 362.178 61.534 369.268 61.534 369.268 68.623"></polygon>
                <path d="M411.445,68.622 L404.356,68.622 L404.356,61.533 L411.445,61.533 L411.445,68.622 L411.445,68.622 Z M411.445,26.089 L404.356,26.089 L404.356,19 L411.445,19 L411.445,26.089 L411.445,26.089 Z M404.356,61.533 L397.267,61.533 L397.267,47.355 L404.356,47.355 L404.356,61.533 L404.356,61.533 Z M404.356,40.266 L397.267,40.266 L397.267,26.088 L404.356,26.088 L404.356,40.266 L404.356,40.266 Z M397.268,47.355 L390.178,47.355 L390.178,40.266 L397.268,40.266 L397.268,47.355 L397.268,47.355 Z M390.178,61.533 L383.089,61.533 L383.089,47.355 L390.178,47.355 L390.178,61.533 L390.178,61.533 Z M390.178,40.266 L383.089,40.266 L383.089,26.088 L390.178,26.088 L390.178,40.266 L390.178,40.266 Z M383.089,68.622 L376,68.622 L376,61.533 L383.089,61.533 L383.089,68.622 L383.089,68.622 Z M383.089,26.089 L376,26.089 L376,19 L383.089,19 L383.089,26.089 L383.089,26.089 Z" id="Shape" stroke="#52F800" stroke-width="2"></path>
                <polygon id="Shape" stroke="#B400FF" stroke-width="2" points="447.355 68.623 419 68.623 419 19 447.355 19 447.355 26.09 426.088 26.09 426.088 40.268 441.684 40.268 441.684 47.356 426.088 47.356 426.088 61.534 447.355 61.534 447.355 68.623"></polygon>
                <polygon id="Shape" stroke="#FF5400" stroke-width="2" points="483.355 68.623 455 68.623 455 19 462.088 19 462.088 61.534 483.355 61.534"></polygon>
                <path d="M518.356,61.533 L511.267,61.533 L511.267,47.355 L518.356,47.355 L518.356,61.533 L518.356,61.533 Z M511.267,47.355 L497.089,47.355 L497.089,40.266 L511.267,40.266 L511.267,47.355 L511.267,47.355 Z M518.356,26.089 L497.089,26.089 L497.089,19 L518.356,19 L518.356,26.089 L518.356,26.089 Z M511.267,68.622 L490,68.622 L490,61.533 L511.267,61.533 L511.267,68.622 L511.267,68.622 Z M497.089,40.266 L490,40.266 L490,26.088 L497.089,26.088 L497.089,40.266 L497.089,40.266 Z" id="Shape" stroke="#FF0090" stroke-width="2"></path>
                <path d="M18.906,69.483 C28.083,69.483 37.812,63.411 35.604,53.199 C34.1136,46.2438 27.8026875,45.10116 21.1983525,44.4077359 L20.3164331,44.3174705 C20.1692893,44.302713 20.0220998,44.2880596 19.8749146,44.2734515 L18.5517002,44.1416113 C11.3627475,43.4131647 4.54158,42.36945 3.933,34.086 C3.726,31.395 4.347,28.842 6.072,26.703 C8.97,22.908 14.145,21.252 18.699,21.183 C23.046,21.114 27.807,22.425 30.774,25.599 C32.154,27.117 32.982,28.842 33.396,30.843 L33.465,31.395 L34.5,31.188 L34.431,30.636 C32.085,18.147 12.213,16.974 5.175,26.082 C3.381,28.428 2.622,31.257 2.898,34.155 C4.14,52.164 31.395,39.054 34.5,53.406 C36.501,62.997 27.393,68.448 18.975,68.448 C12.42,68.448 4.347,64.791 3.588,57.546 L3.519,57.063 L2.415,57.201 L2.484,57.684 C3.312,65.481 11.868,69.483 18.906,69.483 Z M63.342,69.069 C69.897,69.069 75.762,66.378 80.04,61.962 C82.11,59.823 83.835,57.27 85.008,54.441 L83.835,54.441 C82.731,56.994 81.144,59.202 79.281,61.134 C75.21,65.343 69.552,67.965 63.342,67.965 C57.132,67.965 51.474,65.343 47.403,61.134 C43.332,56.994 40.779,51.267 40.779,44.919 C40.779,38.64 43.332,32.913 47.403,28.704 C51.474,24.495 57.132,21.942 63.342,21.942 C69.552,21.942 75.21,24.495 79.281,28.704 C81.144,30.636 82.731,32.913 83.835,35.466 L85.008,35.466 C83.835,32.637 82.11,30.084 80.04,27.945 C75.762,23.529 69.897,20.838 63.342,20.838 C56.787,20.838 50.922,23.529 46.644,27.945 C42.435,32.292 39.744,38.295 39.744,44.919 C39.744,51.612 42.435,57.615 46.644,61.962 C50.922,66.378 56.787,69.069 63.342,69.069 Z M91.149,69 L91.149,21.804 L106.812,21.804 C124.752,21.804 124.752,47.886 106.812,47.886 L97.428,47.886 L97.428,48.921 L119.646,69 L121.233,69 L99.015,48.921 L106.812,48.921 C126.132,48.921 126.132,20.7 106.812,20.7 L90.114,20.7 L90.114,69 L91.149,69 Z M145.797,69 L145.797,67.965 L135.516,67.965 L135.516,21.735 L145.797,21.735 L145.797,20.769 L124.2,20.769 L124.2,20.769 L124.2,21.735 L134.481,21.735 L134.481,67.965 L124.2,67.965 L124.2,69 L145.797,69 L145.797,69 Z M151.11,69 L151.11,50.646 L166.704,50.646 C186.024,50.646 186.024,20.7 166.704,20.7 L150.006,20.7 L150.006,69 L150.006,69 L151.11,69 Z M166.704,49.611 L151.11,49.611 L151.11,21.804 L166.704,21.804 C184.644,21.804 184.644,49.611 166.704,49.611 Z M198.168,69.207 L198.168,21.804 L214.866,21.804 L214.866,20.7 L180.435,20.7 L180.435,21.804 L197.133,21.804 L197.133,69.207 L198.168,69.207 Z M245.778,69 L245.778,67.965 L220.11,67.965 L220.11,45.402 L245.088,45.402 L245.088,44.298 L220.11,44.298 L220.11,21.804 L245.64,21.804 L245.64,20.769 L219.006,20.769 L219.006,69 L245.778,69 Z M267.03,69 C298.701,69 298.701,20.769 267.03,20.769 L250.746,20.769 L250.746,69 L250.746,69 L267.03,69 Z M267.03,67.965 L251.781,67.965 L251.781,21.804 L251.781,21.804 L267.03,21.804 C297.321,21.804 297.321,67.965 267.03,67.965 Z" id="SCRIPTED" stroke="#000000" fill="#000000" fill-rule="nonzero"></path>
            </g>
        </g>
    </g>
</svg>