<?xml version="1.0" encoding="UTF-8"?>
<svg width="519px" height="52px" viewBox="0 0 519 52" version="1.1" xmlns="http://www.w3.org/2000/svg" xmlns:xlink="http://www.w3.org/1999/xlink">
    <title>Group Copy</title>
    <g id="Welcome" stroke="none" stroke-width="1" fill="none" fill-rule="evenodd">
        <g id="Artboard" transform="translate(-49.000000, -99.000000)">
            <g id="Group-Copy" transform="translate(50.415000, 100.000000)">
                <path d="M331.851,7.09 L317.673,7.09 L317.673,21.268 L331.851,21.268 L331.851,7.09 L331.851,7.09 Z M338.94,21.267 L331.851,21.267 L331.851,28.356 L317.674,28.356 L317.674,49.623 L310.585,49.623 L310.585,-7.10542736e-15 L331.851,-7.10542736e-15 L331.851,7.09 L338.94,7.09 L338.94,21.267 L338.94,21.267 Z" id="Shape" stroke="#FF0000" stroke-width="2"></path>
                <polygon id="Shape" stroke="#3FA9F5" stroke-width="2" points="345.585 49.623 345.585 42.534 352.674 42.534 352.674 7.09 345.585 7.09 345.585 -1.0658141e-14 366.853 -1.0658141e-14 366.853 7.09 359.763 7.09 359.763 42.534 366.853 42.534 366.853 49.623"></polygon>
                <path d="M409.03,49.622 L401.941,49.622 L401.941,42.533 L409.03,42.533 L409.03,49.622 L409.03,49.622 Z M409.03,7.089 L401.941,7.089 L401.941,-3.55271368e-15 L409.03,-3.55271368e-15 L409.03,7.089 L409.03,7.089 Z M401.941,42.533 L394.852,42.533 L394.852,28.355 L401.941,28.355 L401.941,42.533 L401.941,42.533 Z M401.941,21.266 L394.852,21.266 L394.852,7.088 L401.941,7.088 L401.941,21.266 L401.941,21.266 Z M394.853,28.355 L387.763,28.355 L387.763,21.266 L394.853,21.266 L394.853,28.355 L394.853,28.355 Z M387.763,42.533 L380.674,42.533 L380.674,28.355 L387.763,28.355 L387.763,42.533 L387.763,42.533 Z M387.763,21.266 L380.674,21.266 L380.674,7.088 L387.763,7.088 L387.763,21.266 L387.763,21.266 Z M380.674,49.622 L373.585,49.622 L373.585,42.533 L380.674,42.533 L380.674,49.622 L380.674,49.622 Z M380.674,7.089 L373.585,7.089 L373.585,-3.55271368e-15 L380.674,-3.55271368e-15 L380.674,7.089 L380.674,7.089 Z" id="Shape" stroke="#52F800" stroke-width="2"></path>
                <polygon id="Shape" stroke="#B400FF" stroke-width="2" points="444.94 49.623 416.585 49.623 416.585 -1.42108547e-14 444.94 -1.42108547e-14 444.94 7.09 423.673 7.09 423.673 21.268 439.269 21.268 439.269 28.356 423.673 28.356 423.673 42.534 444.94 42.534 444.94 49.623"></polygon>
                <polygon id="Shape" stroke="#FF5400" stroke-width="2" points="480.94 49.623 452.585 49.623 452.585 -1.42108547e-14 459.673 -1.42108547e-14 459.673 42.534 480.94 42.534"></polygon>
                <path d="M515.941,42.533 L508.852,42.533 L508.852,28.355 L515.941,28.355 L515.941,42.533 L515.941,42.533 Z M508.852,28.355 L494.674,28.355 L494.674,21.266 L508.852,21.266 L508.852,28.355 L508.852,28.355 Z M515.941,7.089 L494.674,7.089 L494.674,-3.55271368e-15 L515.941,-3.55271368e-15 L515.941,7.089 L515.941,7.089 Z M508.852,49.622 L487.585,49.622 L487.585,42.533 L508.852,42.533 L508.852,49.622 L508.852,49.622 Z M494.674,21.266 L487.585,21.266 L487.585,7.088 L494.674,7.088 L494.674,21.266 L494.674,21.266 Z" id="Shape" stroke="#FF0090" stroke-width="2"></path>
                <path d="M16.491,50.483 C25.668,50.483 35.397,44.411 33.189,34.199 C31.6986,27.2438 25.3876875,26.10116 18.7833525,25.4077359 L17.9014331,25.3174705 C17.7542893,25.302713 17.6070998,25.2880596 17.4599146,25.2734515 L16.1367002,25.1416113 C8.9477475,24.4131647 2.12658,23.36945 1.518,15.086 C1.311,12.395 1.932,9.842 3.657,7.703 C6.555,3.908 11.73,2.252 16.284,2.183 C20.631,2.114 25.392,3.425 28.359,6.599 C29.739,8.117 30.567,9.842 30.981,11.843 L31.05,12.395 L32.085,12.188 L32.016,11.636 C29.67,-0.853 9.798,-2.026 2.76,7.082 C0.966,9.428 0.207,12.257 0.483,15.155 C1.725,33.164 28.98,20.054 32.085,34.406 C34.086,43.997 24.978,49.448 16.56,49.448 C10.005,49.448 1.932,45.791 1.173,38.546 L1.104,38.063 L0,38.201 L0.069,38.684 C0.897,46.481 9.453,50.483 16.491,50.483 Z M60.927,50.069 C67.482,50.069 73.347,47.378 77.625,42.962 C79.695,40.823 81.42,38.27 82.593,35.441 L81.42,35.441 C80.316,37.994 78.729,40.202 76.866,42.134 C72.795,46.343 67.137,48.965 60.927,48.965 C54.717,48.965 49.059,46.343 44.988,42.134 C40.917,37.994 38.364,32.267 38.364,25.919 C38.364,19.64 40.917,13.913 44.988,9.704 C49.059,5.495 54.717,2.942 60.927,2.942 C67.137,2.942 72.795,5.495 76.866,9.704 C78.729,11.636 80.316,13.913 81.42,16.466 L82.593,16.466 C81.42,13.637 79.695,11.084 77.625,8.945 C73.347,4.529 67.482,1.838 60.927,1.838 C54.372,1.838 48.507,4.529 44.229,8.945 C40.02,13.292 37.329,19.295 37.329,25.919 C37.329,32.612 40.02,38.615 44.229,42.962 C48.507,47.378 54.372,50.069 60.927,50.069 Z M88.734,50 L88.734,2.804 L104.397,2.804 C122.337,2.804 122.337,28.886 104.397,28.886 L95.013,28.886 L95.013,29.921 L117.231,50 L118.818,50 L96.6,29.921 L104.397,29.921 C123.717,29.921 123.717,1.7 104.397,1.7 L87.699,1.7 L87.699,50 L88.734,50 Z M143.382,50 L143.382,48.965 L133.101,48.965 L133.101,2.735 L143.382,2.735 L143.382,1.769 L121.785,1.769 L121.785,1.769 L121.785,2.735 L132.066,2.735 L132.066,48.965 L121.785,48.965 L121.785,50 L143.382,50 L143.382,50 Z M148.695,50 L148.695,31.646 L164.289,31.646 C183.609,31.646 183.609,1.7 164.289,1.7 L147.591,1.7 L147.591,50 L147.591,50 L148.695,50 Z M164.289,30.611 L148.695,30.611 L148.695,2.804 L164.289,2.804 C182.229,2.804 182.229,30.611 164.289,30.611 Z M195.753,50.207 L195.753,2.804 L212.451,2.804 L212.451,1.7 L178.02,1.7 L178.02,2.804 L194.718,2.804 L194.718,50.207 L195.753,50.207 Z M243.363,50 L243.363,48.965 L217.695,48.965 L217.695,26.402 L242.673,26.402 L242.673,25.298 L217.695,25.298 L217.695,2.804 L243.225,2.804 L243.225,1.769 L216.591,1.769 L216.591,50 L243.363,50 Z M264.615,50 C296.286,50 296.286,1.769 264.615,1.769 L248.331,1.769 L248.331,50 L248.331,50 L264.615,50 Z M264.615,48.965 L249.366,48.965 L249.366,2.804 L249.366,2.804 L264.615,2.804 C294.906,2.804 294.906,48.965 264.615,48.965 Z" id="SCRIPTED" stroke="#FFFFFF" fill="#FFFFFF" fill-rule="nonzero"></path>
            </g>
        </g>
    </g>
</svg>